<?xml version="1.0" encoding="UTF-8" standalone="no"?>
<svg width="17px" height="25px" viewBox="0 0 17 25" version="1.1" xmlns="http://www.w3.org/2000/svg" xmlns:xlink="http://www.w3.org/1999/xlink">
    <!-- Generator: Sketch 48.1 (47250) - http://www.bohemiancoding.com/sketch -->
    <title>placeholder</title>
    <desc>Created with Sketch.</desc>
    <defs></defs>
    <g id="MR-Mobile" stroke="none" stroke-width="1" fill="none" fill-rule="evenodd" transform="translate(-49.000000, -3169.000000)">
        <g id="Classes" transform="translate(0.000000, 2392.000000)" fill="#000000" fill-rule="nonzero">
            <g id="Class-component" transform="translate(45.000000, 651.000000)">
                <g id="Map-pin" transform="translate(4.000000, 126.000000)">
                    <g id="placeholder">
                        <path d="M8.81481481,5.76923077 C7.07928571,5.76923077 5.66666667,7.20741758 5.66666667,8.97435897 C5.66666667,10.7413004 7.07928571,12.1794872 8.81481481,12.1794872 C10.5503439,12.1794872 11.962963,10.7413004 11.962963,8.97435897 C11.962963,7.20741758 10.5503439,5.76923077 8.81481481,5.76923077 Z M8.81481481,11.2637363 C7.57489418,11.2637363 6.56613757,10.2367216 6.56613757,8.97435897 C6.56613757,7.71199634 7.57489418,6.68498168 8.81481481,6.68498168 C10.0547354,6.68498168 11.0634921,7.71199634 11.0634921,8.97435897 C11.0634921,10.2367216 10.0547354,11.2637363 8.81481481,11.2637363 Z" id="Shape"></path>
                        <path d="M14.5116528,2.5645123 C12.9061151,0.910842449 10.7713085,0 8.50086011,0 C6.22996844,0 4.09560511,0.910842449 2.49006741,2.5645123 C-0.481196856,5.62439505 -0.850443929,11.3816498 1.69040148,14.8697883 L8.50086011,25 L15.3011234,14.8839418 C17.8521641,11.3816498 17.4829171,5.62439505 14.5116528,2.5645123 Z M14.5821333,14.3502201 L8.50086011,23.3956389 L2.40983485,14.3360666 C0.105254378,11.1711745 0.435493358,5.97183922 3.11729983,3.21009186 C4.55528003,1.72900268 6.46711992,0.913125263 8.50086011,0.913125263 C10.5346003,0.913125263 12.4464402,1.72900268 13.8848637,3.21009186 C16.5666701,5.97183922 16.8969091,11.1711745 14.5821333,14.3502201 Z" id="Shape"></path>
                    </g>
                </g>
            </g>
        </g>
    </g>
</svg>